<svg id="Capa_1" data-name="Capa 1" xmlns="http://www.w3.org/2000/svg" viewBox="0 0 358.34 439.8"><defs><style>.cls-1{fill:#61aa92;}.cls-2{fill:#344d67;}.cls-3{fill:#75c3ab;}.cls-4{fill:#93ad77;}.cls-5{fill:#b0d28f;}.cls-6{fill:none;stroke:#1d1d1b;stroke-miterlimit:10;}.cls-7{fill:#f4edb0;}</style></defs><title>logoFran</title><path class="cls-1" d="M375.79,444.82c-4,.53-8.15.95-12.55,1.22q-3,.18-5.94.25c11.8-116.35,26.95-164.59,43.77-167.23h0c28.5-4.44,42.74-6.68,45.58-4.85C453.92,278.88,442.2,317.49,375.79,444.82Z" transform="translate(-175.21 -137.87)"/><path class="cls-2" d="M463.36,250.33c13.87,11,49.88,42.62,64.34,96.69C552.32,439.1,491.55,510.9,488,515c-7.53,8.67-57.86,64.72-138.82,62.66-97.39-2.47-147.46-86.68-150.12-91.33-4-7-42.06-75.53-13.08-154.56,16.4-44.74,46.35-71.24,60.69-82.4-6.85,20.53-19.88,69.45,0,122.85,5.06,13.62,11.31,29.88,26.55,44.46,41.36,39.55,120.64,39.64,162.38,0,15.67-14.88,22.08-31.59,27.24-45.48C482.3,318.75,470,270.75,463.36,250.33Z" transform="translate(-175.21 -137.87)"/><path class="cls-3" d="M353.05,446.31c2.53-9.88,6.29-23.32,11.64-39,3-8.73,10.47-32,21-52.15a291.13,291.13,0,0,1,55.63-74.21c-3.74,4.49-7.83,9.68-12.08,15.58-6.37,8.85-10.65,15.88-13,19.79a507.35,507.35,0,0,0-27.59,53.47A468.64,468.64,0,0,0,363.24,446c18.57-1,51.54-6.14,75-30.89,15.06-15.88,21.06-34.41,30.57-63.79,7.88-24.35,8.39-35.36,13.43-56.47,5.08-21.27,14.57-52,33.93-88.34-27.25,5-66.43,16.38-104.29,44.27-13.7,10.1-40.28,31.09-59.07,67.59-31.39,61-19.54,124.92-16.44,125.29.39.05,1.73-.79,2.51-.17.29.22.59.72.47,2,1.67.19,3.4.36,5.19.49C347.52,446.2,350.36,446.3,353.05,446.31Z" transform="translate(-175.21 -137.87)"/><path class="cls-4" d="M293,232.5c-27.3,6.85-5.7,141.77.51,167.49q0,.21.12.51A72.75,72.75,0,0,0,303,421.36c5.36,7.74,19.88,19.52,41.76,24.94H357.3a199,199,0,0,0,5.44-28.65C373.5,323.58,315.51,226.85,293,232.5Z" transform="translate(-175.21 -137.87)"/><path class="cls-5" d="M303.33,137.87c-31.85,41.53-47.5,80.24-55.58,105.92-11.45,36.36-21.31,67.67-11.22,106.43.1.39.23.88.39,1.48,2.21,8.15,19.81,69.52,72.29,88.87a96.2,96.2,0,0,0,35.57,5.73,286.79,286.79,0,0,1-31.72-48.94C304.91,381.43,294,359.73,288.9,330a201.33,201.33,0,0,1,3.21-82,357.61,357.61,0,0,0,9.16,69.33c.92,4,4.05,17.08,9.54,33.47,7.43,22.17,21,55.87,46.49,95.55a255,255,0,0,0,20.85-63.88c3.37-18.29,10.32-61-5.88-94.49-1.44-3-4-6.85-8.48-14.11-13.9-22.64-25-38.38-26.9-41.22C327.61,219.06,315.6,193,303.33,137.87Z" transform="translate(-175.21 -137.87)"/><path class="cls-6" d="M349,426.12" transform="translate(-175.21 -137.87)"/><path class="cls-3" d="M348.64,439.66" transform="translate(-175.21 -137.87)"/><path class="cls-5" d="M343.27,436.85" transform="translate(-175.21 -137.87)"/><path class="cls-7" d="M354.08,556" transform="translate(-175.21 -137.87)"/><path class="cls-7" d="M375.48,553.87c-7.48,9.82-19.27,9.85-21.68,9.79-8.46-.22-18.94-4.5-23.43-14.26a25.12,25.12,0,0,1-1.18-16.78,43.67,43.67,0,0,0,12.87,6.29,44.2,44.2,0,0,0,26.06-.34,43.32,43.32,0,0,0,11.76-6C380.23,534.12,382.47,544.69,375.48,553.87Z" transform="translate(-175.21 -137.87)"/></svg>