<svg id="Capa_1" data-name="Capa 1" xmlns="http://www.w3.org/2000/svg" viewBox="0 0 358.34 328.35"><defs><style>.cls-1{fill:#344d67;}.cls-2{fill:none;stroke:#1d1d1b;stroke-miterlimit:10;}.cls-3{fill:#75c3ab;}.cls-4{fill:#b0d28f;}.cls-5{fill:#f4edb0;}</style></defs><title>maceta</title><path class="cls-1" d="M463.36,250.33c13.87,11,49.88,42.62,64.34,96.69C552.32,439.1,491.55,510.9,488,515c-7.53,8.67-57.86,64.72-138.82,62.66-97.39-2.47-147.46-86.68-150.12-91.33-4-7-42.06-75.53-13.08-154.56,16.4-44.74,46.35-71.24,60.69-82.4-6.85,20.53-19.88,69.45,0,122.85,5.06,13.62,11.31,29.88,26.55,44.46,41.36,39.55,120.64,39.64,162.38,0,15.67-14.88,22.08-31.59,27.24-45.48C482.3,318.75,470,270.75,463.36,250.33Z" transform="translate(-175.21 -249.32)"/><path class="cls-2" d="M349,426.12" transform="translate(-175.21 -249.32)"/><path class="cls-3" d="M348.64,439.66" transform="translate(-175.21 -249.32)"/><path class="cls-4" d="M343.27,436.85" transform="translate(-175.21 -249.32)"/><path class="cls-5" d="M354.08,556" transform="translate(-175.21 -249.32)"/><path class="cls-5" d="M375.48,553.87c-7.48,9.82-19.27,9.85-21.68,9.79-8.46-.22-18.94-4.5-23.43-14.26a25.12,25.12,0,0,1-1.18-16.78,43.67,43.67,0,0,0,12.87,6.29,44.2,44.2,0,0,0,26.06-.34,43.32,43.32,0,0,0,11.76-6C380.23,534.12,382.47,544.69,375.48,553.87Z" transform="translate(-175.21 -249.32)"/></svg>