<?xml version="1.0" standalone="no"?>
<svg xmlns:xlink="http://www.w3.org/1999/xlink" id="wave" style="transform:rotate(180deg); transition: 0.3s" viewBox="0 0 1440 410" version="1.1" xmlns="http://www.w3.org/2000/svg"><defs><linearGradient id="sw-gradient-0" x1="0" x2="0" y1="1" y2="0"><stop stop-color="rgba(52, 77, 103, 1)" offset="0%"/><stop stop-color="rgba(110, 204, 175, 1)" offset="100%"/></linearGradient></defs><path style="transform:translate(0, 0px); opacity:1" fill="url(#sw-gradient-0)" d="M0,123L120,150.3C240,178,480,232,720,211.8C960,191,1200,96,1440,82C1680,68,1920,137,2160,191.3C2400,246,2640,287,2880,273.3C3120,260,3360,191,3600,157.2C3840,123,4080,123,4320,116.2C4560,109,4800,96,5040,109.3C5280,123,5520,164,5760,164C6000,164,6240,123,6480,136.7C6720,150,6960,219,7200,218.7C7440,219,7680,150,7920,129.8C8160,109,8400,137,8640,157.2C8880,178,9120,191,9360,177.7C9600,164,9840,123,10080,150.3C10320,178,10560,273,10800,273.3C11040,273,11280,178,11520,136.7C11760,96,12000,109,12240,123C12480,137,12720,150,12960,157.2C13200,164,13440,164,13680,191.3C13920,219,14160,273,14400,259.7C14640,246,14880,164,15120,116.2C15360,68,15600,55,15840,41C16080,27,16320,14,16560,47.8C16800,82,17040,164,17160,205L17280,246L17280,410L17160,410C17040,410,16800,410,16560,410C16320,410,16080,410,15840,410C15600,410,15360,410,15120,410C14880,410,14640,410,14400,410C14160,410,13920,410,13680,410C13440,410,13200,410,12960,410C12720,410,12480,410,12240,410C12000,410,11760,410,11520,410C11280,410,11040,410,10800,410C10560,410,10320,410,10080,410C9840,410,9600,410,9360,410C9120,410,8880,410,8640,410C8400,410,8160,410,7920,410C7680,410,7440,410,7200,410C6960,410,6720,410,6480,410C6240,410,6000,410,5760,410C5520,410,5280,410,5040,410C4800,410,4560,410,4320,410C4080,410,3840,410,3600,410C3360,410,3120,410,2880,410C2640,410,2400,410,2160,410C1920,410,1680,410,1440,410C1200,410,960,410,720,410C480,410,240,410,120,410L0,410Z"/><defs><linearGradient id="sw-gradient-1" x1="0" x2="0" y1="1" y2="0"><stop stop-color="rgba(52, 77, 103, 1)" offset="0%"/><stop stop-color="rgba(52, 77, 103, 1)" offset="100%"/></linearGradient></defs><path style="transform:translate(0, 50px); opacity:0.9" fill="url(#sw-gradient-1)" d="M0,246L120,266.5C240,287,480,328,720,314.3C960,301,1200,232,1440,191.3C1680,150,1920,137,2160,164C2400,191,2640,260,2880,252.8C3120,246,3360,164,3600,143.5C3840,123,4080,164,4320,198.2C4560,232,4800,260,5040,287C5280,314,5520,342,5760,321.2C6000,301,6240,232,6480,232.3C6720,232,6960,301,7200,293.8C7440,287,7680,205,7920,164C8160,123,8400,123,8640,102.5C8880,82,9120,41,9360,34.2C9600,27,9840,55,10080,54.7C10320,55,10560,27,10800,13.7C11040,0,11280,0,11520,47.8C11760,96,12000,191,12240,191.3C12480,191,12720,96,12960,109.3C13200,123,13440,246,13680,280.2C13920,314,14160,260,14400,205C14640,150,14880,96,15120,116.2C15360,137,15600,232,15840,239.2C16080,246,16320,164,16560,157.2C16800,150,17040,219,17160,252.8L17280,287L17280,410L17160,410C17040,410,16800,410,16560,410C16320,410,16080,410,15840,410C15600,410,15360,410,15120,410C14880,410,14640,410,14400,410C14160,410,13920,410,13680,410C13440,410,13200,410,12960,410C12720,410,12480,410,12240,410C12000,410,11760,410,11520,410C11280,410,11040,410,10800,410C10560,410,10320,410,10080,410C9840,410,9600,410,9360,410C9120,410,8880,410,8640,410C8400,410,8160,410,7920,410C7680,410,7440,410,7200,410C6960,410,6720,410,6480,410C6240,410,6000,410,5760,410C5520,410,5280,410,5040,410C4800,410,4560,410,4320,410C4080,410,3840,410,3600,410C3360,410,3120,410,2880,410C2640,410,2400,410,2160,410C1920,410,1680,410,1440,410C1200,410,960,410,720,410C480,410,240,410,120,410L0,410Z"/></svg>